<svg width="300" height="84" viewBox="0 0 300 84" fill="none" xmlns="http://www.w3.org/2000/svg">
<path d="M101.307 32.2957L96.0585 55.5301H89.4391L85.9618 40.1196L82.4193 55.5301H75.8682L70.584 32.2957H76.1026L79.2446 48.9107L82.9207 32.2957H88.9703L92.6494 48.979L95.7914 32.2957H101.307Z" fill="white"/>
<path d="M122.599 32.2957V55.5301H117.018V46.2375H109.007V55.5301H103.411V32.2957H108.995V41.2559H117.006V32.2957H122.599Z" fill="white"/>
<path d="M126.542 32.2957H132.126V55.5301H126.542V32.2957Z" fill="white"/>
<path d="M153.586 37.2772H146.833V55.5301H141.252V37.2772H134.499V32.2957H153.586V37.2772Z" fill="white"/>
<path d="M172.037 50.682V55.5301H155.959V32.2957H171.871V37.1437H161.54V41.3212H170.601V46.1692H161.54V50.682H172.037Z" fill="white"/>
<path d="M173.775 43.929C173.775 36.9091 178.988 31.8623 185.875 31.8623C191.96 31.8623 195.737 35.6719 196.873 39.5171L191.533 41.6889C190.83 38.9474 188.957 37.1435 185.747 37.1435C182.038 37.1435 179.463 39.8524 179.463 43.929C179.463 48.0056 182.038 50.6818 185.715 50.6818C188.957 50.6818 190.83 48.8779 191.533 46.1364L196.873 48.3083C195.687 52.287 191.859 55.9631 185.809 55.9631C178.988 55.9631 173.775 50.9162 173.775 43.929Z" fill="white"/>
<path d="M205.398 46.285H204.804V55.5449H199.256V32.2957H209.017C214.097 32.2957 217.274 35.2389 217.274 39.2829C217.274 42.6593 214.966 45.3355 211.222 46.0684L217.776 55.5301H211.545L205.398 46.285ZM204.804 42.3389H208.848C210.72 42.3389 211.815 41.3716 211.815 39.7665C211.815 38.1614 210.711 37.1912 208.848 37.1912H204.795L204.804 42.3389Z" fill="white"/>
<path d="M239.138 32.2957V46.4036C239.138 51.6196 235.996 55.9632 229.611 55.9632C223.226 55.9632 220.004 51.6255 220.004 46.4036V32.2957H225.62V46.371C225.62 48.9434 226.926 50.682 229.599 50.682C232.272 50.682 233.542 48.9434 233.542 46.371V32.2957H239.138Z" fill="white"/>
<path d="M241.533 49.8452L246.814 47.8039C247.384 49.9787 249.022 51.1477 251.194 51.1477C253.098 51.1477 254.101 50.3792 254.101 49.1094C254.101 44.9289 242.53 47.2372 242.53 38.8792C242.53 34.767 245.539 31.8594 250.986 31.8594C255.401 31.8594 258.543 34.0994 259.377 37.3067L254.131 39.348C253.63 37.4759 252.392 36.6065 250.719 36.6065C248.98 36.6065 248.111 37.375 248.111 38.4431C248.111 42.4545 259.745 40.1491 259.745 48.9759C259.745 53.0851 256.335 55.9601 250.654 55.9601C246.147 55.9631 242.699 53.7586 241.533 49.8452Z" fill="white"/>
<path d="M279.706 37.2772H272.962V55.5301H267.372V37.2772H260.619V32.2957H279.706V37.2772Z" fill="white"/>
<path d="M40.3927 37.2356L36.9124 43.9469L29.1182 45.9615L33.5568 39.0039L40.3927 37.2356Z" fill="white"/>
<path d="M58.0997 45.9615L50.3055 43.9469L46.8252 37.2356L53.6641 39.0039L58.0997 45.9615Z" fill="white"/>
<path d="M34.1142 49.3408L28.6876 59.8054H20.291L26.9637 49.3408H34.1142Z" fill="white"/>
<path d="M66.9287 59.8054H58.5321L53.1025 49.3408H60.253L66.9287 59.8054Z" fill="white"/>
<path d="M57.6899 59.8054H29.5303L43.6086 49.3408L57.6899 59.8054Z" fill="white"/>
<path d="M50.9461 34.7432H45.5344L43.6088 31.0316L41.6862 34.7432H36.2744L42.962 24.255L43.6088 23.2373L44.2585 24.255L50.9461 34.7432Z" fill="white"/>
</svg>
